<svg xmlns="http://www.w3.org/2000/svg" width="25" height="24" viewBox="0 0 25 24" fill="none">
  <path d="M13.9628 5.39363C13.6281 5.05889 13.0854 5.05889 12.7506 5.39363C12.4159 5.72836 12.4159 6.27108 12.7506 6.60581L17.2876 11.1426H5.64244C5.20286 11.1426 4.84057 11.4735 4.79106 11.8998L4.7853 11.9997C4.7853 12.4731 5.16905 12.8569 5.64244 12.8569H17.2876L12.7506 17.3936C12.4416 17.7026 12.4179 18.1888 12.6793 18.5251L12.7506 18.6058C13.0854 18.9405 13.6281 18.9405 13.9628 18.6058L19.9628 12.6058L20.0256 12.5358C20.0275 12.5333 20.0295 12.5309 20.0315 12.5284C20.0362 12.5224 20.0409 12.5162 20.0456 12.51C20.0609 12.4893 20.0753 12.468 20.0887 12.446C20.0951 12.4357 20.1012 12.4252 20.107 12.4146C20.1163 12.3977 20.1253 12.3802 20.1336 12.3624C20.1404 12.3478 20.1468 12.333 20.1528 12.318C20.1596 12.3011 20.1658 12.2841 20.1714 12.2669C20.1755 12.2542 20.1795 12.241 20.1831 12.2277C20.1883 12.2092 20.1927 12.1906 20.1966 12.1718C20.1996 12.1569 20.2022 12.142 20.2044 12.127C20.2106 12.0857 20.2139 12.0431 20.2139 11.9997L20.2105 12.0762C20.2122 12.0563 20.2133 12.0363 20.2137 12.0163L20.2139 11.9997C20.2139 11.9942 20.2138 11.9888 20.2137 11.9833C20.2134 11.9637 20.2123 11.9434 20.2105 11.9232C20.2089 11.9056 20.2069 11.8887 20.2044 11.872C20.2022 11.8575 20.1996 11.8425 20.1965 11.8277C20.1927 11.8088 20.1883 11.7902 20.1832 11.7719C20.1795 11.7585 20.1755 11.7453 20.1712 11.7322C20.1658 11.7153 20.1596 11.6984 20.1529 11.6817C20.1468 11.6665 20.1404 11.6516 20.1336 11.637C20.1253 11.6192 20.1163 11.6018 20.1068 11.5846C20.1012 11.5742 20.0951 11.5638 20.0887 11.5534C20.0753 11.5315 20.0609 11.5102 20.0456 11.4896C20.0207 11.456 19.9932 11.424 19.9628 11.3936L20.0315 11.4711C20.0102 11.4439 19.9872 11.418 19.9628 11.3936L13.9628 5.39363Z" fill="currentColor"/>
</svg>