<svg width="20" height="19" viewBox="0 0 20 19" fill="none" xmlns="http://www.w3.org/2000/svg">
<g id="Vector">
<path fill-rule="evenodd" clip-rule="evenodd" d="M10.016 1.71429C5.40026 1.71429 1.88896 4.90192 1.88896 8.57053C1.88896 9.88792 2.33008 11.1238 3.1077 12.1711C3.21743 12.3188 3.27668 12.498 3.27668 12.6821C3.27668 13.5751 3.04214 14.4409 2.75368 15.2218C2.57199 15.7136 2.35614 16.2029 2.15002 16.6576C3.91237 16.4704 5.06852 15.9061 5.76567 15.0857C5.99982 14.8102 6.38169 14.7112 6.72019 14.8383C7.72493 15.2157 8.8395 15.4268 10.016 15.4268C14.6318 15.4268 18.1431 12.2391 18.1431 8.57053C18.1431 8.21232 18.1105 7.86108 18.0479 7.51855C17.9627 7.05289 18.2712 6.60635 18.7368 6.52117C19.2025 6.436 19.649 6.74444 19.7342 7.2101C19.8153 7.65359 19.8574 8.10806 19.8574 8.57053C19.8574 13.4219 15.3239 17.1411 10.016 17.1411C8.83906 17.1411 7.70772 16.9612 6.65774 16.6297C5.41931 17.7856 3.6199 18.3412 1.41874 18.4276C0.522084 18.4629 -0.125104 17.5302 0.250347 16.6954C0.32727 16.5232 0.404869 16.3529 0.482013 16.1837C0.718335 15.6653 0.950382 15.1562 1.1456 14.6277C1.36512 14.0335 1.51463 13.472 1.55278 12.9431C0.681214 11.6739 0.174675 10.1761 0.174675 8.57053C0.174675 3.71916 4.70812 0 10.016 0C11.0469 0 12.0426 0.13799 12.9794 0.394908C13.3918 0.508002 13.7928 0.644155 14.1803 0.801755C14.6188 0.980088 14.8297 1.48014 14.6514 1.91865C14.4731 2.35716 13.973 2.56808 13.5345 2.38975C13.21 2.2578 12.8733 2.14339 12.526 2.04814C11.7371 1.83177 10.8938 1.71429 10.016 1.71429ZM1.81357 17.3991L1.81496 17.396C1.8145 17.397 1.81403 17.398 1.81357 17.3991Z" fill="currentColor"/>
<path d="M15.1428 3.85756C15.1428 2.91079 15.9103 2.14328 16.8571 2.14328C17.8039 2.14328 18.5714 2.91079 18.5714 3.85756C18.5714 4.80434 17.8039 5.57185 16.8571 5.57185C15.9103 5.57185 15.1428 4.80434 15.1428 3.85756Z" fill="currentColor"/>
</g>
</svg>
