<svg width="25" height="24" viewBox="0 0 25 24" fill="none" xmlns="http://www.w3.org/2000/svg">
<g id="24px Line">
<path id="Shape" d="M7.69731 2.40039C8.0704 2.40041 8.40479 2.6306 8.53797 2.9791L11.2614 10.1053C11.2848 10.1532 11.3041 10.2034 11.3188 10.2556L11.3642 10.3743L10.4126 12.9266L9.82936 11.4004H5.56445L4.6374 13.8256C4.45992 14.2898 3.93966 14.5224 3.47537 14.3449C3.01108 14.1674 2.77857 13.6471 2.95606 13.1828L6.8566 2.97903C6.98982 2.63054 7.32423 2.40038 7.69731 2.40039ZM6.25253 9.60039H9.14145L7.69717 5.82121L6.25253 9.60039ZM15.7429 6.58805C15.6117 6.23591 15.2755 6.00238 14.8996 6.00237C14.5238 6.00235 14.1876 6.23584 14.0563 6.58798L9.1306 19.8004L8.60522 19.8004C8.10816 19.8004 7.70521 20.2033 7.7052 20.7004C7.70519 21.1974 8.10812 21.6004 8.60518 21.6004L11.6052 21.6004C12.1022 21.6005 12.5052 21.1975 12.5052 20.7005C12.5052 20.2034 12.1023 19.8005 11.6052 19.8004L11.0516 19.8004L11.9479 17.3963H17.8504L18.7464 19.8004H18.1997C17.7026 19.8004 17.2997 20.2033 17.2997 20.7004C17.2997 21.1975 17.7026 21.6004 18.1997 21.6004L21.1993 21.6004C21.6964 21.6004 22.0993 21.1975 22.0993 20.7004C22.0993 20.2033 21.6964 19.8004 21.1993 19.8004H20.6673L15.7429 6.58805ZM17.1795 15.5963H12.6189L14.8995 9.47907L17.1795 15.5963Z" fill="currentColor"/>
</g>
</svg>
