<svg width="25" height="24" viewBox="0 0 25 24" fill="none" xmlns="http://www.w3.org/2000/svg">
<g id="24px Line">
<g id="Vector">
<path fill-rule="evenodd" clip-rule="evenodd" d="M3.1252 4.1377C2.64885 4.1377 2.2627 4.52385 2.2627 5.0002V7.0002C2.2627 7.47654 2.64885 7.8627 3.1252 7.8627C3.60154 7.8627 3.9877 7.47654 3.9877 7.0002V5.8627H16.2627V7.0002C16.2627 7.47654 16.6488 7.8627 17.1252 7.8627C17.6015 7.8627 17.9877 7.47654 17.9877 7.0002V5.0002C17.9877 4.77145 17.8968 4.55207 17.7351 4.39032C17.5733 4.22857 17.3539 4.1377 17.1252 4.1377H3.1252Z" fill="#171A1F"/>
<path fill-rule="evenodd" clip-rule="evenodd" d="M7.26257 19.0002C7.26257 19.4765 7.64873 19.8627 8.12507 19.8627H12.1251C12.6014 19.8627 12.9876 19.4765 12.9876 19.0002C12.9876 18.5238 12.6014 18.1377 12.1251 18.1377H10.9876V5.0002C10.9876 4.52385 10.6014 4.1377 10.1251 4.1377C9.64873 4.1377 9.26257 4.52385 9.26257 5.0002V18.1377H8.12507C7.64873 18.1377 7.26257 18.5238 7.26257 19.0002Z" fill="#171A1F"/>
<path fill-rule="evenodd" clip-rule="evenodd" d="M13.5002 11.1375C13.0238 11.1375 12.6377 11.5236 12.6377 12V14C12.6377 14.4763 13.0238 14.8625 13.5002 14.8625C13.9765 14.8625 14.3627 14.4763 14.3627 14V12.8625H20.6377V14C20.6377 14.4763 21.0238 14.8625 21.5002 14.8625C21.9765 14.8625 22.3627 14.4763 22.3627 14V12C22.3627 11.7712 22.2718 11.5518 22.1101 11.3901C21.9483 11.2283 21.7289 11.1375 21.5002 11.1375H13.5002Z" fill="#171A1F"/>
<path fill-rule="evenodd" clip-rule="evenodd" d="M15.1377 19C15.1377 19.4763 15.5238 19.8625 16.0002 19.8625H19.0002C19.4765 19.8625 19.8627 19.4763 19.8627 19C19.8627 18.5236 19.4765 18.1375 19.0002 18.1375H18.3627V12C18.3627 11.5236 17.9765 11.1375 17.5002 11.1375C17.0238 11.1375 16.6377 11.5236 16.6377 12V18.1375H16.0002C15.5238 18.1375 15.1377 18.5236 15.1377 19Z" fill="#171A1F"/>
</g>
</g>
</svg>
