<svg width="25" height="24" viewBox="0 0 25 24" fill="none" xmlns="http://www.w3.org/2000/svg">
<g id="24px Line">
<path id="source (Stroke)" fill-rule="evenodd" clip-rule="evenodd" d="M12.4996 2.85965C7.45177 2.85965 3.35965 6.95177 3.35965 11.9996C3.35965 17.0475 7.45177 21.1396 12.4996 21.1396C13.6815 21.1396 14.6396 20.1815 14.6396 18.9996V18.4996C14.6396 18.4783 14.6396 18.4573 14.6396 18.4366C14.6396 18.0332 14.6395 17.7478 14.6727 17.4958C14.9007 15.7637 16.2637 14.4007 17.9958 14.1727C18.2478 14.1395 18.5332 14.1396 18.9366 14.1396C18.9573 14.1396 18.9783 14.1396 18.9996 14.1396H19.4996C20.6815 14.1396 21.6396 13.1815 21.6396 11.9996C21.6396 6.95177 17.5475 2.85965 12.4996 2.85965ZM1.63965 11.9996C1.63965 6.00184 6.50184 1.13965 12.4996 1.13965C18.4975 1.13965 23.3596 6.00184 23.3596 11.9996C23.3596 14.1315 21.6315 15.8596 19.4996 15.8596H18.9996C18.5079 15.8596 18.3453 15.8615 18.2203 15.878C17.26 16.0044 16.5044 16.76 16.378 17.7203C16.3615 17.8453 16.3596 18.0079 16.3596 18.4996V18.9996C16.3596 21.1315 14.6315 22.8596 12.4996 22.8596C6.50184 22.8596 1.63965 17.9975 1.63965 11.9996ZM10.4996 6.85965C10.4223 6.85965 10.3596 6.92233 10.3596 6.99965C10.3596 7.07697 10.4223 7.13965 10.4996 7.13965C10.577 7.13965 10.6396 7.07697 10.6396 6.99965C10.6396 6.92233 10.577 6.85965 10.4996 6.85965ZM8.63965 6.99965C8.63965 5.9724 9.4724 5.13965 10.4996 5.13965C11.5269 5.13965 12.3596 5.9724 12.3596 6.99965C12.3596 8.0269 11.5269 8.85965 10.4996 8.85965C9.4724 8.85965 8.63965 8.0269 8.63965 6.99965ZM16.4996 7.85965C16.4223 7.85965 16.3596 7.92233 16.3596 7.99965C16.3596 8.07697 16.4223 8.13965 16.4996 8.13965C16.577 8.13965 16.6396 8.07697 16.6396 7.99965C16.6396 7.92233 16.577 7.85965 16.4996 7.85965ZM14.6396 7.99965C14.6396 6.9724 15.4724 6.13965 16.4996 6.13965C17.5269 6.13965 18.3596 6.9724 18.3596 7.99965C18.3596 9.0269 17.5269 9.85965 16.4996 9.85965C15.4724 9.85965 14.6396 9.0269 14.6396 7.99965ZM7.49965 11.8596C7.42233 11.8596 7.35965 11.9223 7.35965 11.9996C7.35965 12.077 7.42233 12.1396 7.49965 12.1396C7.57697 12.1396 7.63965 12.077 7.63965 11.9996C7.63965 11.9223 7.57697 11.8596 7.49965 11.8596ZM5.63965 11.9996C5.63965 10.9724 6.4724 10.1396 7.49965 10.1396C8.5269 10.1396 9.35965 10.9724 9.35965 11.9996C9.35965 13.0269 8.5269 13.8596 7.49965 13.8596C6.4724 13.8596 5.63965 13.0269 5.63965 11.9996Z" fill="#171A1F"/>
</g>
</svg>
