<svg width="25" height="24" viewBox="0 0 25 24" fill="none" xmlns="http://www.w3.org/2000/svg">
<g id="24px Line">
<path id="Icon (Stroke)" fill-rule="evenodd" clip-rule="evenodd" d="M3.5002 2.1377C3.97654 2.1377 4.3627 2.52385 4.3627 3.0002V21.0002C4.3627 21.4765 3.97654 21.8627 3.5002 21.8627C3.02385 21.8627 2.6377 21.4765 2.6377 21.0002V3.0002C2.6377 2.52385 3.02385 2.1377 3.5002 2.1377ZM21.5002 2.1377C21.9765 2.1377 22.3627 2.52385 22.3627 3.0002V21.0002C22.3627 21.4765 21.9765 21.8627 21.5002 21.8627C21.0238 21.8627 20.6377 21.4765 20.6377 21.0002V3.0002C20.6377 2.52385 21.0238 2.1377 21.5002 2.1377ZM8.97862 8.28255C9.37497 8.54678 9.48207 9.08228 9.21784 9.47862L8.11179 11.1377H16.8886L15.7826 9.47862C15.5183 9.08228 15.6254 8.54678 16.0218 8.28255C16.4181 8.01832 16.9536 8.12542 17.2178 8.52177L19.2178 11.5218C19.411 11.8115 19.411 12.1889 19.2178 12.4786L17.2178 15.4786C16.9536 15.875 16.4181 15.9821 16.0218 15.7178C15.6254 15.4536 15.5183 14.9181 15.7826 14.5218L16.8886 12.8627H8.11179L9.21784 14.5218C9.48207 14.9181 9.37497 15.4536 8.97862 15.7178C8.58228 15.9821 8.04678 15.875 7.78255 15.4786L5.78255 12.4786C5.58941 12.1889 5.58941 11.8115 5.78255 11.5218L7.78255 8.52177C8.04678 8.12542 8.58228 8.01832 8.97862 8.28255Z" fill="#171A1F"/>
</g>
</svg>
