<svg width="25" height="24" viewBox="0 0 25 24" fill="none" xmlns="http://www.w3.org/2000/svg">
<g id="book-open-01">
<path id="Icon" d="M20.5 13.7778V15.7333C20.5 17.2268 20.5 17.9735 20.2094 18.544C19.9537 19.0457 19.5457 19.4537 19.044 19.7094C18.4735 20 17.7268 20 16.2333 20H14.2778M10.7222 4H8.76667C7.27319 4 6.52646 4 5.95603 4.29065C5.45426 4.54631 5.04631 4.95426 4.79065 5.45603C4.5 6.02646 4.5 6.77319 4.5 8.26667V10.2222M15.1667 9.33333L20.5 4M20.5 4H15.1667M20.5 4V9.33333M9.83333 14.6667L4.5 20M4.5 20H9.83333M4.5 20L4.5 14.6667" stroke="currentColor" stroke-width="1.77778" stroke-linecap="round" stroke-linejoin="round"/>
</g>
</svg>
