<svg width="25" height="24" viewBox="0 0 25 24" fill="none" xmlns="http://www.w3.org/2000/svg">
<g id="24px Line">
<path id="Subtract" fill-rule="evenodd" clip-rule="evenodd" d="M14.944 3.24079L13.9082 3.51833L12.5327 3.92564C12.1687 3.53946 11.6524 3.29838 11.0798 3.29838H9.25684C8.73342 3.29838 8.25705 3.49982 7.90102 3.8294C7.54498 3.49981 7.0686 3.29837 6.54518 3.29837H4.65458C3.55201 3.29837 2.6582 4.19218 2.6582 5.29475V18.6001C2.6582 19.7027 3.55201 20.5965 4.65458 20.5965H6.54518C7.0686 20.5965 7.54497 20.3951 7.901 20.0655C8.25704 20.3951 8.73342 20.5965 9.25684 20.5965H11.0798C11.2486 20.5965 11.4125 20.5756 11.5691 20.5361C11.3257 20.0696 11.1316 19.5732 10.994 19.0539H9.25684C9.00626 19.0539 8.80312 18.8507 8.80312 18.6001V7.9136H11.5335V13.9281C12.1714 12.6729 13.1651 11.629 14.3818 10.9291L13.7313 8.50146L13.7312 8.50098L16.5692 7.72849L17.1818 10.0148C17.4438 9.98598 17.71 9.97121 17.9797 9.97121C18.2498 9.97121 18.5165 9.98603 18.7789 10.0149L17.3335 4.62036C17.0546 3.57956 15.9848 2.96191 14.944 3.24079ZM13.0761 6.25019L13.2747 6.93242L16.1465 6.15074L15.8434 5.01963C15.785 4.80179 15.5611 4.67251 15.3432 4.73088L14.3269 5.00321L13.0761 5.37359V6.25019ZM8.80312 6.2802H11.5335V5.29476C11.5335 5.04418 11.3303 4.84104 11.0798 4.84104H9.25684C9.00626 4.84104 8.80312 5.04418 8.80312 5.29476V6.2802ZM6.9989 5.29475V6.2802H4.20086V5.29475C4.20086 5.04417 4.404 4.84103 4.65458 4.84103H6.54518C6.79576 4.84103 6.9989 5.04417 6.9989 5.29475ZM4.20086 18.6001V7.9136H6.9989V18.6001C6.9989 18.8507 6.79576 19.0538 6.54518 19.0538H4.65458C4.404 19.0538 4.20086 18.8507 4.20086 18.6001Z" fill="currentColor"/>
<path id="Subtract_2" fill-rule="evenodd" clip-rule="evenodd" d="M17.9954 22.6423C21.0024 22.6423 23.4401 20.2046 23.4401 17.1976C23.4401 14.1906 21.0024 11.7529 17.9954 11.7529C14.9884 11.7529 12.5508 14.1906 12.5508 17.1976C12.5508 20.2046 14.9884 22.6423 17.9954 22.6423ZM18.8209 14.7249C18.8209 14.2692 18.4516 13.8998 17.9959 13.8998C17.5403 13.8998 17.1709 14.2692 17.1709 14.7249V16.3749H15.5208C15.0652 16.3749 14.6958 16.7443 14.6958 17.1999C14.6958 17.6556 15.0652 18.025 15.5208 18.025H17.1709V19.675C17.1709 20.1307 17.5403 20.5001 17.9959 20.5001C18.4516 20.5001 18.8209 20.1307 18.8209 19.675V18.025H20.471C20.9267 18.025 21.296 17.6556 21.296 17.1999C21.296 16.7443 20.9267 16.3749 20.471 16.3749H18.8209V14.7249Z" fill="currentColor"/>
</g>
</svg>
