<svg width="25" height="24" viewBox="0 0 25 24" fill="none" xmlns="http://www.w3.org/2000/svg">
<g id="more_horizontal_28">
<path id="&#226;&#134;&#179; Icon Color" d="M6.28599 10.2861C7.35111 10.2861 8.21456 11.1496 8.21456 12.2147C8.21456 13.2798 7.35111 14.1433 6.28599 14.1433C5.22087 14.1433 4.35742 13.2798 4.35742 12.2147C4.35742 11.1496 5.22087 10.2861 6.28599 10.2861ZM12.286 10.2861C13.3511 10.2861 14.2146 11.1496 14.2146 12.2147C14.2146 13.2798 13.3511 14.1433 12.286 14.1433C11.2209 14.1433 10.3574 13.2798 10.3574 12.2147C10.3574 11.1496 11.2209 10.2861 12.286 10.2861ZM18.286 10.2861C19.3511 10.2861 20.2146 11.1496 20.2146 12.2147C20.2146 13.2798 19.3511 14.1433 18.286 14.1433C17.2209 14.1433 16.3574 13.2798 16.3574 12.2147C16.3574 11.1496 17.2209 10.2861 18.286 10.2861Z" fill="currentColor"/>
</g>
</svg>
