<svg width="25" height="24" viewBox="0 0 25 24" fill="none" xmlns="http://www.w3.org/2000/svg">
<g id="numbered-list-left">
<path id="Vector" d="M9.11133 5.67578L21.4998 5.67578" stroke="currentColor" stroke-width="1.91459" stroke-linecap="round" stroke-linejoin="round"/>
<path id="Vector_2" d="M4.60742 7.57764L4.60742 3.77441" stroke="currentColor" stroke-width="1.35147" stroke-linecap="round" stroke-linejoin="round"/>
<path id="Vector_3" d="M5.55786 13.8755L4.22673 13.8755C3.91166 13.8755 3.65625 13.6201 3.65625 13.305L3.65625 12.5444C3.65625 12.2293 3.91166 11.9739 4.22673 11.9739L4.98738 11.9739C5.30245 11.9739 5.55786 11.7185 5.55786 11.4034L5.55786 10.6427C5.55786 10.3277 5.30245 10.0723 4.98738 10.0723L3.65625 10.0723" stroke="currentColor" stroke-width="1.23605" stroke-linecap="round" stroke-linejoin="round"/>
<path id="Vector_4" d="M3.65625 16.8301L4.98738 16.8301C5.30245 16.8301 5.55786 17.0855 5.55786 17.4006L5.55786 20.0628C5.55786 20.3779 5.30245 20.6333 4.98738 20.6333L3.65625 20.6333" stroke="currentColor" stroke-width="1.23605" stroke-linecap="round" stroke-linejoin="round"/>
<path id="Vector_5" d="M5.55786 18.7314L3.65625 18.7314" stroke="currentColor" stroke-width="1.23605" stroke-linecap="round" stroke-linejoin="round"/>
<path id="Vector_6" d="M9.11133 12.1211L21.4998 12.1211" stroke="currentColor" stroke-width="1.91459" stroke-linecap="round" stroke-linejoin="round"/>
<path id="Vector_7" d="M9.11133 18.8789L21.4998 18.8789" stroke="currentColor" stroke-width="1.91459" stroke-linecap="round" stroke-linejoin="round"/>
</g>
</svg>
