<svg width="25" height="24" viewBox="0 0 25 24" fill="none" xmlns="http://www.w3.org/2000/svg">
<g id="24px Line">
<path id="&#226;&#134;&#179; Icon Color" d="M13.2222 2.21181C14.4301 2.24941 15.2155 2.91395 15.6296 4.16671L15.6952 4.38095L15.746 4.57274C15.7644 4.64662 15.7874 4.72526 15.8144 4.80695L15.8717 4.96631L15.9057 4.98331L15.9747 4.96051L16.1083 4.90932L16.2642 4.8415C17.678 4.1833 18.7656 4.30545 19.6512 5.27868L19.7764 5.42351L20.5966 6.44001C21.3275 7.40236 21.3054 8.43097 20.5924 9.54119L20.4672 9.72699L20.3501 9.88713C20.3033 9.94928 20.2556 10.0182 20.2082 10.0922L20.1373 10.2069L20.1037 10.2643L20.1077 10.2843L20.1994 10.3448L20.3259 10.4212L20.4793 10.5045C21.8684 11.2134 22.4417 12.1457 22.2205 13.4407L22.1835 13.6282L21.9394 14.6864C21.7813 15.3712 21.6572 15.6955 21.1686 16.1403C20.6941 16.5725 20.1526 16.7508 19.4371 16.81L19.2171 16.8243L19.0188 16.8306C18.9419 16.832 18.8592 16.8368 18.7726 16.8449L18.5917 16.8663L18.6049 17.0087L18.6182 17.1045L18.6505 17.2832C18.9738 18.8089 18.6101 19.8411 17.4626 20.4851L17.2933 20.5745L16.1184 21.145C15.0163 21.6407 14.019 21.3877 13.0976 20.4433L12.9447 20.2795L12.8151 20.1294C12.7645 20.0692 12.7075 20.0066 12.6453 19.9431L12.5484 19.8473L12.4987 19.8013L12.4071 19.8885L12.3021 19.9965L12.1844 20.1294C11.2319 21.263 10.2266 21.67 9.00816 21.1961L8.83263 21.1223L7.78121 20.6114L7.46888 20.4515C6.99282 20.1916 6.72567 19.9426 6.46461 19.3913C6.18977 18.8109 6.17131 18.2408 6.30454 17.5081L6.34896 17.2832C6.36486 17.2082 6.37877 17.1267 6.3904 17.0408L6.40872 16.8693L6.40472 16.8653L6.30104 16.8514L6.15455 16.8383L5.98066 16.8306C4.42137 16.8024 3.49741 16.2159 3.12804 14.9529L3.07904 14.7679L2.78746 13.4947C2.55238 12.3093 3.02321 11.3945 4.1507 10.7092L4.34469 10.5971L4.52016 10.5045C4.58893 10.4694 4.66141 10.4287 4.73595 10.3834L4.89072 10.2823L4.89472 10.2633L4.83217 10.1554L4.75136 10.0302L4.64938 9.88713C3.71161 8.64103 3.60497 7.55181 4.3728 6.48319L4.48844 6.33066L5.31221 5.31704C6.10155 4.40202 7.1123 4.20983 8.34649 4.67638L8.55426 4.76023L8.73525 4.8415C8.80334 4.8732 8.87785 4.90442 8.95714 4.93451L9.09272 4.98231L9.12872 4.96531L9.16235 4.87667L9.20743 4.73872L9.25347 4.57274C9.61258 3.13627 10.3377 2.32982 11.6428 2.22163L11.8332 2.21094L13.2222 2.21181ZM13.1662 4.01094H11.8332L11.6938 4.02115C11.4078 4.0584 11.2209 4.2128 11.0411 4.85282L10.9997 5.00931L10.9433 5.21507C10.8383 5.56758 10.6796 5.96427 10.4753 6.34941C10.0708 6.49437 9.68636 6.68154 9.32795 6.90752C8.90624 6.82203 8.50412 6.69663 8.16855 6.55793L7.81854 6.403C7.56963 6.29639 7.3832 6.24199 7.23546 6.22876L7.15127 6.22567C6.97366 6.22938 6.85638 6.30233 6.74309 6.41827L6.67515 6.49279L5.88601 7.46502L5.7913 7.59039C5.6079 7.85471 5.58047 8.09041 5.98617 8.66579L6.21436 8.98161C6.42627 9.29134 6.63875 9.6731 6.81224 10.083C6.68282 10.4673 6.59124 10.869 6.54218 11.2844C6.20831 11.5735 5.85254 11.8211 5.52853 12.0052L5.18626 12.1883C4.56939 12.5276 4.49073 12.7514 4.53969 13.0694L4.55307 13.1446L4.83336 14.365L4.87385 14.5168C4.96922 14.824 5.13806 14.9908 5.84124 15.0253L6.22859 15.0398C6.59953 15.0632 7.02655 15.1297 7.45168 15.2437C7.67645 15.5927 7.93643 15.9169 8.22783 16.2111C8.24443 16.7377 8.19574 17.2511 8.10986 17.6564C7.90875 18.6054 8.09597 18.7583 8.49335 18.9558L9.61944 19.5034C9.73876 19.5571 9.8454 19.5932 9.95621 19.5919L10.0233 19.5863C10.2044 19.5586 10.4048 19.4245 10.6936 19.1016L10.9514 18.8067C11.2081 18.5279 11.536 18.2323 11.9 17.9697L12.1979 17.9918L12.4997 17.9993L12.8016 17.9917L13.0997 17.9689C13.4634 18.2321 13.7913 18.5279 14.048 18.8067L14.3058 19.1016C14.6307 19.4649 14.8438 19.5892 15.0432 19.5919L15.1094 19.5883C15.1679 19.5815 15.2263 19.5651 15.2869 19.5422L15.38 19.5034L16.5061 18.9558L16.6449 18.8822C16.9442 18.7077 17.0656 18.4868 16.8896 17.6564C16.8037 17.2511 16.755 16.7377 16.7729 16.2112C17.063 15.9169 17.323 15.5927 17.548 15.242C17.9735 15.1293 18.4003 15.0631 18.771 15.0398L19.1582 15.0253C19.9696 14.9855 20.0695 14.7696 20.1661 14.365L20.4296 13.2236C20.5202 12.8176 20.525 12.5798 19.8132 12.1883L19.4709 12.0052C19.1469 11.821 18.7911 11.5733 18.4575 11.2837C18.4082 10.869 18.3166 10.4673 18.1867 10.0822C18.3606 9.67296 18.5732 9.29132 18.7851 8.98161L19.0133 8.66579C19.419 8.09041 19.3915 7.85471 19.2081 7.59039L19.1632 7.52872L18.3763 6.55469C18.2354 6.3833 18.1172 6.2606 17.9242 6.23192L17.8482 6.22567C17.6883 6.22233 17.4796 6.27506 17.1809 6.403L16.831 6.55787C16.4957 6.69645 16.0939 6.82159 15.6726 6.90595C15.3129 6.68136 14.9276 6.49382 14.5221 6.35031C14.3276 5.97986 14.1738 5.59934 14.069 5.25759L13.9556 4.84302C13.7637 4.16563 13.5633 4.03862 13.2424 4.0148L13.1662 4.01094ZM12.4997 8.19931C14.5984 8.19931 16.2997 9.90063 16.2997 11.9993C16.2997 14.098 14.5984 15.7993 12.4997 15.7993C10.401 15.7993 8.69972 14.098 8.69972 11.9993C8.69972 9.90063 10.401 8.19931 12.4997 8.19931ZM12.4997 9.99931C11.3952 9.99931 10.4997 10.8947 10.4997 11.9993C10.4997 13.1039 11.3952 13.9993 12.4997 13.9993C13.6043 13.9993 14.4997 13.1039 14.4997 11.9993C14.4997 10.8947 13.6043 9.99931 12.4997 9.99931Z" fill="currentColor"/>
</g>
</svg>
