<svg width="25" height="24" viewBox="0 0 25 24" fill="none" xmlns="http://www.w3.org/2000/svg">
<g id="24px Line">
<path id="Icon (Stroke)" fill-rule="evenodd" clip-rule="evenodd" d="M17.8337 3.85039C16.8403 3.85039 16.0171 4.66868 16.0171 5.70039C16.0171 6.02405 16.0981 6.32671 16.24 6.58969C16.248 6.60185 16.2558 6.61429 16.2633 6.62699C16.2739 6.64488 16.2837 6.663 16.2928 6.68131C16.6156 7.20554 17.1888 7.55039 17.8337 7.55039C18.8271 7.55039 19.6504 6.7321 19.6504 5.70039C19.6504 4.66868 18.8271 3.85039 17.8337 3.85039ZM15.313 8.17577C15.9504 8.83764 16.842 9.25039 17.8337 9.25039C19.7859 9.25039 21.3504 7.65102 21.3504 5.70039C21.3504 3.74977 19.7859 2.15039 17.8337 2.15039C15.8816 2.15039 14.3171 3.74977 14.3171 5.70039C14.3171 6.04889 14.367 6.38617 14.4602 6.70512L9.68775 9.52501C9.05041 8.86314 8.15875 8.45039 7.16706 8.45039C5.21493 8.45039 3.65039 10.0498 3.65039 12.0004C3.65039 13.951 5.21493 15.5504 7.16706 15.5504C8.15893 15.5504 9.05073 15.1375 9.6881 14.4754L14.4613 17.2917C14.3674 17.6118 14.3171 17.9504 14.3171 18.3004C14.3171 20.251 15.8816 21.8504 17.8337 21.8504C19.7859 21.8504 21.3504 20.251 21.3504 18.3004C21.3504 16.3498 19.7859 14.7504 17.8337 14.7504C16.8435 14.7504 15.9531 15.1619 15.3159 15.822L10.5408 13.0047C10.6338 12.6858 10.6837 12.3487 10.6837 12.0004C10.6837 11.6519 10.6338 11.3146 10.5406 10.9957L15.313 8.17577ZM8.70796 11.0195C8.71707 11.0378 8.72691 11.0559 8.73748 11.0738C8.74498 11.0865 8.75277 11.0989 8.76082 11.1111C8.9027 11.3741 8.98372 11.6767 8.98372 12.0004C8.98372 12.3241 8.9027 12.6267 8.76081 12.8897C8.75266 12.902 8.74479 12.9146 8.7372 12.9275C8.72674 12.9452 8.717 12.9632 8.70796 12.9813C8.38515 13.5055 7.81195 13.8504 7.16706 13.8504C6.17366 13.8504 5.35039 13.0321 5.35039 12.0004C5.35039 10.9687 6.17366 10.1504 7.16706 10.1504C7.81195 10.1504 8.38515 10.4952 8.70796 11.0195ZM16.2156 17.4579C16.2359 17.4312 16.255 17.403 16.2725 17.3733C16.2924 17.3396 16.3097 17.305 16.3245 17.2699C16.6523 16.7736 17.2094 16.4504 17.8337 16.4504C18.8271 16.4504 19.6504 17.2687 19.6504 18.3004C19.6504 19.3321 18.8271 20.1504 17.8337 20.1504C16.8403 20.1504 16.0171 19.3321 16.0171 18.3004C16.0171 17.9958 16.0888 17.7097 16.2156 17.4579Z" fill="currentColor"/>
</g>
</svg>
